<?xml version="1.0" encoding="UTF-8" standalone="no"?>
<!DOCTYPE svg PUBLIC "-//W3C//DTD SVG 1.1//EN" "http://www.w3.org/Graphics/SVG/1.1/DTD/svg11.dtd">
<svg width="100%" height="100%" viewBox="0 0 200 200" version="1.1" xmlns="http://www.w3.org/2000/svg" xmlns:xlink="http://www.w3.org/1999/xlink" xml:space="preserve" xmlns:serif="http://www.serif.com/" style="fill-rule:evenodd;clip-rule:evenodd;stroke-linejoin:round;stroke-miterlimit:2;">
    <path d="M159.672,180.034C159.383,180.315 159.096,180.592 158.808,180.867C138.284,200.501 100,200 100,200C93.326,200.237 83.171,197.455 72.22,192.911C69.792,194.726 66.78,195.801 63.519,195.801C55.487,195.801 48.965,189.279 48.965,181.247L48.965,181.208C31.745,170.966 17.316,158.464 16.757,148.894C14.991,118.611 -2.311,115.34 0.098,104.464C2.507,93.588 8.28,56.932 13.119,50.482C14.617,48.484 17.404,45.172 20.896,41.271C20.48,39.388 20.262,37.433 20.262,35.427C20.262,20.505 32.377,8.389 47.299,8.389C50.19,8.389 52.975,8.844 55.588,9.686C74.776,-0.574 100,0 100,0C100,0 120.45,8.669 146.735,11.586C151.495,12.114 155.879,13.544 159.904,15.693C162.314,13.922 165.29,12.876 168.508,12.876C176.54,12.876 183.062,19.397 183.062,27.43C183.062,30.689 181.988,33.699 180.176,36.125C195.128,60.332 200.33,95.706 199.4,111.007C198.903,119.184 195.841,128.467 191.1,137.91C194.987,142.594 197.326,148.607 197.326,155.163C197.326,170.085 185.21,182.201 170.288,182.201C166.52,182.201 162.931,181.428 159.672,180.034Z"/>
    <path d="M49.549,185.333C49.169,184.037 48.965,182.665 48.965,181.247L48.965,181.208C31.745,170.966 17.316,158.464 16.757,148.894C14.991,118.611 -2.311,115.34 0.098,104.464C2.507,93.588 8.28,56.932 13.119,50.482C14.617,48.484 17.404,45.172 20.896,41.271C20.48,39.388 20.262,37.433 20.262,35.427C20.262,20.505 32.377,8.389 47.299,8.389C50.19,8.389 52.975,8.844 55.588,9.686C74.776,-0.574 100,0 100,0C100,0 120.45,8.669 146.735,11.586C151.495,12.114 155.879,13.544 159.904,15.693C162.314,13.922 165.29,12.876 168.508,12.876C176.54,12.876 183.062,19.397 183.062,27.43C183.062,30.689 181.988,33.699 180.176,36.125C195.128,60.332 200.33,95.706 199.4,111.007C198.903,119.184 195.841,128.467 191.1,137.91C194.987,142.594 197.326,148.607 197.326,155.163C197.326,170.085 185.21,182.201 170.288,182.201C166.52,182.201 162.931,181.428 159.672,180.034C159.383,180.315 159.096,180.592 158.808,180.867C138.284,200.501 100,200 100,200C93.326,200.237 83.171,197.455 72.22,192.911C69.792,194.726 66.78,195.801 63.519,195.801C56.919,195.801 51.339,191.397 49.56,185.371C51.549,185.087 53.084,183.399 53.129,181.342C53.12,181.665 53.072,181.991 52.983,182.313C52.538,183.931 51.175,185.105 49.549,185.333ZM53.132,181.261L53.132,181.223C53.138,179.775 52.385,178.394 51.095,177.627C41.169,171.723 32.183,165.07 26.486,158.68C23.292,155.098 21.097,151.745 20.917,148.652C19.785,129.24 12.699,120.209 7.751,113.586C6.647,112.11 5.659,110.784 4.942,109.466C4.232,108.164 3.826,106.901 4.166,105.365C5.847,97.776 9.166,77.596 12.663,63.966C13.984,58.821 15.177,54.681 16.452,52.982C17.906,51.044 20.613,47.834 24.001,44.049C24.895,43.05 25.254,41.682 24.965,40.373C24.613,38.779 24.428,37.125 24.428,35.427C24.428,22.804 34.676,12.556 47.299,12.556C49.744,12.556 52.1,12.94 54.31,13.652C55.386,13.998 56.556,13.893 57.553,13.36C73.949,4.593 94.974,4.155 99.161,4.159C103.205,5.779 122.388,13.076 146.276,15.727C150.492,16.195 154.375,17.464 157.942,19.369C159.356,20.124 161.079,20 162.371,19.051C164.09,17.788 166.213,17.042 168.508,17.042C174.241,17.042 178.895,21.697 178.895,27.43C178.895,29.754 178.13,31.901 176.838,33.632C175.814,35.002 175.733,36.859 176.631,38.314C191.096,61.733 196.141,95.951 195.241,110.754C194.773,118.445 191.836,127.158 187.376,136.041C186.634,137.52 186.837,139.298 187.894,140.572C191.182,144.532 193.159,149.619 193.159,155.163C193.159,167.786 182.911,178.034 170.288,178.034C167.102,178.034 164.067,177.382 161.311,176.203C159.765,175.541 157.972,175.874 156.767,177.047C156.486,177.32 156.207,177.589 155.928,177.856C136.448,196.491 100.054,195.834 100.054,195.834C99.987,195.833 99.92,195.834 99.852,195.836C93.59,196.058 84.092,193.326 73.816,189.063C72.458,188.499 70.903,188.694 69.725,189.574C67.994,190.868 65.845,191.634 63.519,191.634C57.786,191.634 53.132,186.98 53.132,181.247L53.132,181.261Z"/>
    <rect id="Artboard1" x="0" y="0" width="200" height="200" style="fill:none;"/>
    <g id="Artboard11" serif:id="Artboard1">
        <g transform="matrix(0.226932,0,0,0.226932,126.482,46.6174)">
            <circle cx="112.163" cy="99.84" r="87.837" style="fill:white;"/>
        </g>
        <path d="M57.303,104.383C54.509,105.206 51.551,105.648 48.492,105.648C31.293,105.648 17.33,91.685 17.33,74.487C17.33,57.288 31.293,43.325 48.492,43.325C65.69,43.325 79.653,57.288 79.653,74.487C79.653,75.372 79.616,76.249 79.544,77.114C78.297,76.869 77.007,76.741 75.688,76.741C64.687,76.741 55.755,85.672 55.755,96.674C55.755,99.407 56.306,102.012 57.303,104.383Z" style="fill:white;"/>
        <g transform="matrix(0.0530911,0,0,0.0530911,52.9009,128.146)">
            <circle cx="112.163" cy="99.84" r="87.837" style="fill:white;"/>
        </g>
        <g transform="matrix(0.0530911,0,0,0.0530911,91.6142,63.9736)">
            <circle cx="112.163" cy="99.84" r="87.837" style="fill:white;"/>
        </g>
        <g transform="matrix(0.0530911,0,0,0.0530911,161.25,96.5459)">
            <circle cx="112.163" cy="99.84" r="87.837" style="fill:white;"/>
        </g>
        <g transform="matrix(0.0530911,0,0,0.0530911,89.4779,166.056)">
            <circle cx="112.163" cy="99.84" r="87.837" style="fill:white;"/>
        </g>
        <g transform="matrix(0.165692,0,0,0.165692,85.5072,15.8226)">
            <circle cx="112.163" cy="99.84" r="87.837" style="fill:white;"/>
        </g>
        <g transform="matrix(0.307819,0,0,0.307819,104.258,118.513)">
            <circle cx="112.163" cy="99.84" r="87.837" style="fill:white;"/>
        </g>
    </g>
</svg>
