<?xml version="1.0" encoding="UTF-8" standalone="no"?>
<!DOCTYPE svg PUBLIC "-//W3C//DTD SVG 1.1//EN" "http://www.w3.org/Graphics/SVG/1.1/DTD/svg11.dtd">
<svg width="100%" height="100%" viewBox="0 0 200 200" version="1.1" xmlns="http://www.w3.org/2000/svg" xmlns:xlink="http://www.w3.org/1999/xlink" xml:space="preserve" xmlns:serif="http://www.serif.com/" style="fill-rule:evenodd;clip-rule:evenodd;stroke-linejoin:round;stroke-miterlimit:2;">
    <rect id="Artboard1" x="0" y="0" width="200" height="200" style="fill:none;"/>
    <g id="Artboard11" serif:id="Artboard1">
        <path d="M1.884,119.4C0.648,113.124 0,106.637 0,100C0,81.478 5.047,64.125 13.841,49.24C13.575,47.524 13.437,45.751 13.437,43.939C13.437,28.869 23.044,16.543 35.114,15.772C41.41,10.469 49.539,7.271 58.41,7.271C59.646,7.271 60.869,7.334 62.072,7.455C73.772,2.65 86.579,0 100,0C111.982,0 123.475,2.112 134.13,5.985C136.372,5.393 138.723,5.078 141.148,5.078C154.276,5.078 165.262,14.323 167.945,26.654C187.654,44.921 200,71.03 200,100C200,113.163 197.451,125.736 192.819,137.254C193.561,139.968 193.956,142.823 193.956,145.769C193.956,163.316 179.931,177.612 162.489,178.051C145.362,191.784 123.633,200 100,200C78.68,200 58.908,193.313 42.669,181.923C42.845,180.819 42.936,179.686 42.936,178.532C42.936,166.683 33.317,157.064 21.468,157.064C20.314,157.064 19.181,157.155 18.077,157.331C16.093,154.502 14.251,151.566 12.564,148.533C5.126,144.886 0,137.238 0,128.401C0,125.2 0.673,122.156 1.884,119.4Z"/>
        <g transform="matrix(1,0,0,1,159.208,46.6586)">
            <circle cx="-124.95" cy="76.671" r="23.329" style="fill:white;"/>
        </g>
        <g transform="matrix(1.5575,0,0,1.5575,323.045,-70.832)">
            <circle cx="-124.95" cy="76.671" r="23.329" style="fill:white;"/>
        </g>
        <g transform="matrix(0.791775,0,0,0.791775,263.703,81.0948)">
            <circle cx="-124.95" cy="76.671" r="23.329" style="fill:white;"/>
        </g>
        <g transform="matrix(0.279495,0,0,0.279495,141.443,154.888)">
            <circle cx="-124.95" cy="76.671" r="23.329" style="fill:white;"/>
        </g>
        <g transform="matrix(0.279495,0,0,0.279495,98.1938,23.8858)">
            <circle cx="-124.95" cy="76.671" r="23.329" style="fill:white;"/>
        </g>
        <g transform="matrix(0.279495,0,0,0.279495,174.037,90.327)">
            <circle cx="-124.95" cy="76.671" r="23.329" style="fill:white;"/>
        </g>
    </g>
</svg>
