<?xml version="1.0" encoding="UTF-8" standalone="no"?>
<!DOCTYPE svg PUBLIC "-//W3C//DTD SVG 1.1//EN" "http://www.w3.org/Graphics/SVG/1.1/DTD/svg11.dtd">
<svg width="100%" height="100%" viewBox="0 0 200 200" version="1.1" xmlns="http://www.w3.org/2000/svg" xmlns:xlink="http://www.w3.org/1999/xlink" xml:space="preserve" xmlns:serif="http://www.serif.com/" style="fill-rule:evenodd;clip-rule:evenodd;stroke-linejoin:round;stroke-miterlimit:2;">
    <path d="M74.97,3.164C82.971,1.099 91.358,-0 100,-0C115.001,-0 129.235,3.31 142.014,9.241C143.146,9.157 144.29,9.113 145.443,9.113C170.524,9.113 190.887,29.476 190.887,54.557C190.887,55.71 190.843,56.854 190.759,57.986C196.69,70.765 200,84.999 200,100C200,108.947 198.823,117.62 196.613,125.88C184.287,127.537 174.771,138.107 174.771,150.883C174.771,155.203 175.86,159.272 177.778,162.829C174.757,166.563 171.473,170.075 167.951,173.34C161.916,188.932 146.772,200 129.062,200C125.128,200 121.321,199.454 117.712,198.433C111.964,199.463 106.044,200 100,200C76.146,200 54.232,191.63 37.042,177.673C36.847,177.677 36.65,177.679 36.452,177.679C19.241,177.679 5.269,163.706 5.269,146.495C5.269,143.013 5.84,139.664 6.895,136.536C2.445,125.219 -0,112.893 -0,100C-0,80.81 5.417,62.875 14.807,47.638C26.988,44.593 36.313,34.301 37.928,21.616C43.08,17.529 48.645,13.938 54.546,10.919C56.772,5.471 62.126,1.628 68.372,1.628C70.74,1.628 72.98,2.18 74.97,3.164Z"/>
    <rect id="Artboard1" x="0" y="0" width="200" height="200" style="fill:none;"/>
    <g id="Artboard11" serif:id="Artboard1">
        <g transform="matrix(1,0,0,1,-24.4453,6.26804)">
            <circle cx="70.498" cy="102.191" r="29.502" style="fill:white;"/>
        </g>
        <g transform="matrix(0.506024,0,0,0.506024,64.3262,-8.28302)">
            <circle cx="70.498" cy="102.191" r="29.502" style="fill:white;"/>
        </g>
        <g transform="matrix(0.272315,0,0,0.272315,135.334,43.0952)">
            <circle cx="70.498" cy="102.191" r="29.502" style="fill:white;"/>
        </g>
        <g transform="matrix(0.807359,0,0,0.807359,81.8298,55.456)">
            <circle cx="70.498" cy="102.191" r="29.502" style="fill:white;"/>
        </g>
    </g>
</svg>
